{
	"asset":{
		"generator":"Khronos glTF Blender I/O v4.2.69",
		"version":"2.0"
	},
	"scene":0,
	"scenes":[
		{
			"name":"Scene",
			"nodes":[
				0
			]
		}
	],
	"nodes":[
		{
			"mesh":0,
			"name":"Lancia Delta"
		}
	],
	"materials":[
		{
			"doubleSided":true,
			"name":"Default_OBJ.216",
			"pbrMetallicRoughness":{
				"baseColorTexture":{
					"index":0
				},
				"metallicFactor":0,
				"roughnessFactor":0
			}
		},
		{
			"doubleSided":true,
			"name":"Default_OBJ.217",
			"pbrMetallicRoughness":{
				"baseColorTexture":{
					"index":1
				},
				"metallicFactor":0,
				"roughnessFactor":0.8211145401000977
			}
		},
		{
			"doubleSided":true,
			"name":"Default_OBJ.218",
			"pbrMetallicRoughness":{
				"baseColorTexture":{
					"index":2
				},
				"metallicFactor":0,
				"roughnessFactor":0.8211145401000977
			}
		},
		{
			"doubleSided":true,
			"name":"Default_OBJ.219",
			"pbrMetallicRoughness":{
				"baseColorTexture":{
					"index":3
				},
				"metallicFactor":0,
				"roughnessFactor":0.8211145401000977
			}
		},
		{
			"doubleSided":true,
			"name":"Default_OBJ.220",
			"pbrMetallicRoughness":{
				"baseColorTexture":{
					"index":4
				},
				"metallicFactor":0,
				"roughnessFactor":0.8211145401000977
			}
		},
		{
			"doubleSided":true,
			"name":"Default_OBJ.221",
			"pbrMetallicRoughness":{
				"baseColorTexture":{
					"index":5
				},
				"metallicFactor":0,
				"roughnessFactor":0.8211145401000977
			}
		}
	],
	"meshes":[
		{
			"name":"Lancia Delta_Default OBJ.057_0.002",
			"primitives":[
				{
					"attributes":{
						"POSITION":0,
						"NORMAL":1,
						"TEXCOORD_0":2
					},
					"indices":3,
					"material":0
				},
				{
					"attributes":{
						"POSITION":4,
						"NORMAL":5,
						"TEXCOORD_0":6
					},
					"indices":7,
					"material":1
				},
				{
					"attributes":{
						"POSITION":8,
						"NORMAL":9,
						"TEXCOORD_0":10
					},
					"indices":11,
					"material":2
				},
				{
					"attributes":{
						"POSITION":12,
						"NORMAL":13,
						"TEXCOORD_0":14
					},
					"indices":11,
					"material":3
				},
				{
					"attributes":{
						"POSITION":15,
						"NORMAL":16,
						"TEXCOORD_0":17
					},
					"indices":11,
					"material":4
				},
				{
					"attributes":{
						"POSITION":18,
						"NORMAL":19,
						"TEXCOORD_0":20
					},
					"indices":11,
					"material":5
				}
			]
		}
	],
	"textures":[
		{
			"sampler":0,
			"source":0
		},
		{
			"sampler":0,
			"source":0
		},
		{
			"sampler":0,
			"source":0
		},
		{
			"sampler":0,
			"source":0
		},
		{
			"sampler":0,
			"source":0
		},
		{
			"sampler":0,
			"source":0
		}
	],
	"images":[
		{
			"mimeType":"image/png",
			"name":"Default_OBJ.057_baseColor",
			"uri":"textures/Default_OBJ_057_baseColor.png"
		}
	],
	"accessors":[
		{
			"bufferView":0,
			"componentType":5126,
			"count":2089,
			"max":[
				0.8854296803474426,
				0.5996037125587463,
				1.9508030414581299
			],
			"min":[
				-0.8854296207427979,
				-0.5996037721633911,
				-1.9508030414581299
			],
			"type":"VEC3"
		},
		{
			"bufferView":1,
			"componentType":5126,
			"count":2089,
			"type":"VEC3"
		},
		{
			"bufferView":2,
			"componentType":5126,
			"count":2089,
			"type":"VEC2"
		},
		{
			"bufferView":3,
			"componentType":5123,
			"count":5928,
			"type":"SCALAR"
		},
		{
			"bufferView":4,
			"componentType":5126,
			"count":76,
			"max":[
				0.5536255240440369,
				0.6821502447128296,
				-1.1897724866867065
			],
			"min":[
				-0.5536255240440369,
				0.4710739850997925,
				-1.3516489267349243
			],
			"type":"VEC3"
		},
		{
			"bufferView":5,
			"componentType":5126,
			"count":76,
			"type":"VEC3"
		},
		{
			"bufferView":6,
			"componentType":5126,
			"count":76,
			"type":"VEC2"
		},
		{
			"bufferView":7,
			"componentType":5123,
			"count":180,
			"type":"SCALAR"
		},
		{
			"bufferView":8,
			"componentType":5126,
			"count":246,
			"max":[
				0.8593608140945435,
				-0.15044373273849487,
				1.4757698774337769
			],
			"min":[
				0.5817140936851501,
				-0.760235607624054,
				0.8659780025482178
			],
			"type":"VEC3"
		},
		{
			"bufferView":9,
			"componentType":5126,
			"count":246,
			"type":"VEC3"
		},
		{
			"bufferView":10,
			"componentType":5126,
			"count":246,
			"type":"VEC2"
		},
		{
			"bufferView":11,
			"componentType":5123,
			"count":960,
			"type":"SCALAR"
		},
		{
			"bufferView":12,
			"componentType":5126,
			"count":246,
			"max":[
				0.8593608140945435,
				-0.1504441201686859,
				-0.9860663414001465
			],
			"min":[
				0.5817140936851501,
				-0.7602360248565674,
				-1.5958582162857056
			],
			"type":"VEC3"
		},
		{
			"bufferView":13,
			"componentType":5126,
			"count":246,
			"type":"VEC3"
		},
		{
			"bufferView":14,
			"componentType":5126,
			"count":246,
			"type":"VEC2"
		},
		{
			"bufferView":15,
			"componentType":5126,
			"count":246,
			"max":[
				-0.5817135572433472,
				-0.15044373273849487,
				1.4757699966430664
			],
			"min":[
				-0.85936039686203,
				-0.760235607624054,
				0.8659781217575073
			],
			"type":"VEC3"
		},
		{
			"bufferView":16,
			"componentType":5126,
			"count":246,
			"type":"VEC3"
		},
		{
			"bufferView":17,
			"componentType":5126,
			"count":246,
			"type":"VEC2"
		},
		{
			"bufferView":18,
			"componentType":5126,
			"count":246,
			"max":[
				-0.5817135572433472,
				-0.1504441201686859,
				-0.9860662221908569
			],
			"min":[
				-0.85936039686203,
				-0.7602360248565674,
				-1.595858097076416
			],
			"type":"VEC3"
		},
		{
			"bufferView":19,
			"componentType":5126,
			"count":246,
			"type":"VEC3"
		},
		{
			"bufferView":20,
			"componentType":5126,
			"count":246,
			"type":"VEC2"
		}
	],
	"bufferViews":[
		{
			"buffer":0,
			"byteLength":25068,
			"byteOffset":0,
			"target":34962
		},
		{
			"buffer":0,
			"byteLength":25068,
			"byteOffset":25068,
			"target":34962
		},
		{
			"buffer":0,
			"byteLength":16712,
			"byteOffset":50136,
			"target":34962
		},
		{
			"buffer":0,
			"byteLength":11856,
			"byteOffset":66848,
			"target":34963
		},
		{
			"buffer":0,
			"byteLength":912,
			"byteOffset":78704,
			"target":34962
		},
		{
			"buffer":0,
			"byteLength":912,
			"byteOffset":79616,
			"target":34962
		},
		{
			"buffer":0,
			"byteLength":608,
			"byteOffset":80528,
			"target":34962
		},
		{
			"buffer":0,
			"byteLength":360,
			"byteOffset":81136,
			"target":34963
		},
		{
			"buffer":0,
			"byteLength":2952,
			"byteOffset":81496,
			"target":34962
		},
		{
			"buffer":0,
			"byteLength":2952,
			"byteOffset":84448,
			"target":34962
		},
		{
			"buffer":0,
			"byteLength":1968,
			"byteOffset":87400,
			"target":34962
		},
		{
			"buffer":0,
			"byteLength":1920,
			"byteOffset":89368,
			"target":34963
		},
		{
			"buffer":0,
			"byteLength":2952,
			"byteOffset":91288,
			"target":34962
		},
		{
			"buffer":0,
			"byteLength":2952,
			"byteOffset":94240,
			"target":34962
		},
		{
			"buffer":0,
			"byteLength":1968,
			"byteOffset":97192,
			"target":34962
		},
		{
			"buffer":0,
			"byteLength":2952,
			"byteOffset":99160,
			"target":34962
		},
		{
			"buffer":0,
			"byteLength":2952,
			"byteOffset":102112,
			"target":34962
		},
		{
			"buffer":0,
			"byteLength":1968,
			"byteOffset":105064,
			"target":34962
		},
		{
			"buffer":0,
			"byteLength":2952,
			"byteOffset":107032,
			"target":34962
		},
		{
			"buffer":0,
			"byteLength":2952,
			"byteOffset":109984,
			"target":34962
		},
		{
			"buffer":0,
			"byteLength":1968,
			"byteOffset":112936,
			"target":34962
		}
	],
	"samplers":[
		{
			"magFilter":9729,
			"minFilter":9987
		}
	],
	"buffers":[
		{
			"byteLength":114904,
			"uri":"scene.bin"
		}
	]
}
