{
	"asset":{
		"generator":"Khronos glTF Blender I/O v4.2.69",
		"version":"2.0"
	},
	"scene":0,
	"scenes":[
		{
			"name":"Scene",
			"nodes":[
				0
			]
		}
	],
	"nodes":[
		{
			"mesh":0,
			"name":"Subaru Impreza"
		}
	],
	"materials":[
		{
			"doubleSided":true,
			"name":"Default_OBJ.227",
			"pbrMetallicRoughness":{
				"baseColorTexture":{
					"index":0
				},
				"metallicFactor":0,
				"roughnessFactor":0
			}
		},
		{
			"doubleSided":true,
			"name":"Default_OBJ.228",
			"pbrMetallicRoughness":{
				"baseColorTexture":{
					"index":1
				},
				"metallicFactor":0,
				"roughnessFactor":0.8211145401000977
			}
		},
		{
			"doubleSided":true,
			"name":"Default_OBJ.229",
			"pbrMetallicRoughness":{
				"baseColorTexture":{
					"index":2
				},
				"metallicFactor":0,
				"roughnessFactor":0.8211145401000977
			}
		},
		{
			"doubleSided":true,
			"name":"Default_OBJ.230",
			"pbrMetallicRoughness":{
				"baseColorTexture":{
					"index":3
				},
				"metallicFactor":0,
				"roughnessFactor":0.8211145401000977
			}
		},
		{
			"doubleSided":true,
			"name":"Default_OBJ.231",
			"pbrMetallicRoughness":{
				"baseColorTexture":{
					"index":4
				},
				"metallicFactor":0,
				"roughnessFactor":0.8211145401000977
			}
		},
		{
			"doubleSided":true,
			"name":"Default_OBJ.232",
			"pbrMetallicRoughness":{
				"baseColorTexture":{
					"index":5
				},
				"metallicFactor":0,
				"roughnessFactor":0.8211145401000977
			}
		}
	],
	"meshes":[
		{
			"name":"Subaru Impreza_Default OBJ.042_0.002",
			"primitives":[
				{
					"attributes":{
						"POSITION":0,
						"NORMAL":1,
						"TEXCOORD_0":2
					},
					"indices":3,
					"material":0
				},
				{
					"attributes":{
						"POSITION":4,
						"NORMAL":5,
						"TEXCOORD_0":6
					},
					"indices":7,
					"material":1
				},
				{
					"attributes":{
						"POSITION":8,
						"NORMAL":9,
						"TEXCOORD_0":10
					},
					"indices":11,
					"material":2
				},
				{
					"attributes":{
						"POSITION":12,
						"NORMAL":13,
						"TEXCOORD_0":14
					},
					"indices":11,
					"material":3
				},
				{
					"attributes":{
						"POSITION":15,
						"NORMAL":16,
						"TEXCOORD_0":17
					},
					"indices":11,
					"material":4
				},
				{
					"attributes":{
						"POSITION":18,
						"NORMAL":19,
						"TEXCOORD_0":20
					},
					"indices":11,
					"material":5
				}
			]
		}
	],
	"textures":[
		{
			"sampler":0,
			"source":0
		},
		{
			"sampler":0,
			"source":0
		},
		{
			"sampler":0,
			"source":0
		},
		{
			"sampler":0,
			"source":0
		},
		{
			"sampler":0,
			"source":0
		},
		{
			"sampler":0,
			"source":0
		}
	],
	"images":[
		{
			"mimeType":"image/png",
			"name":"Default_OBJ.042_baseColor",
			"uri":"textures/Default_OBJ_042_baseColor.png"
		}
	],
	"accessors":[
		{
			"bufferView":0,
			"componentType":5126,
			"count":2360,
			"max":[
				0.867964506149292,
				0.6070647239685059,
				2.103080987930298
			],
			"min":[
				-0.8679643273353577,
				-0.6070650219917297,
				-2.1030819416046143
			],
			"type":"VEC3"
		},
		{
			"bufferView":1,
			"componentType":5126,
			"count":2360,
			"type":"VEC3"
		},
		{
			"bufferView":2,
			"componentType":5126,
			"count":2360,
			"type":"VEC2"
		},
		{
			"bufferView":3,
			"componentType":5123,
			"count":7098,
			"type":"SCALAR"
		},
		{
			"bufferView":4,
			"componentType":5126,
			"count":319,
			"max":[
				0.6324000954627991,
				0.4522678554058075,
				-1.6129908561706543
			],
			"min":[
				-0.6323999762535095,
				0.18062575161457062,
				-2.06693696975708
			],
			"type":"VEC3"
		},
		{
			"bufferView":5,
			"componentType":5126,
			"count":319,
			"type":"VEC3"
		},
		{
			"bufferView":6,
			"componentType":5126,
			"count":319,
			"type":"VEC2"
		},
		{
			"bufferView":7,
			"componentType":5123,
			"count":888,
			"type":"SCALAR"
		},
		{
			"bufferView":8,
			"componentType":5126,
			"count":472,
			"max":[
				0.8857028484344482,
				-0.08752834796905518,
				1.5401663780212402
			],
			"min":[
				0.6271741390228271,
				-0.7364492416381836,
				0.891245424747467
			],
			"type":"VEC3"
		},
		{
			"bufferView":9,
			"componentType":5126,
			"count":472,
			"type":"VEC3"
		},
		{
			"bufferView":10,
			"componentType":5126,
			"count":472,
			"type":"VEC2"
		},
		{
			"bufferView":11,
			"componentType":5123,
			"count":1200,
			"type":"SCALAR"
		},
		{
			"bufferView":12,
			"componentType":5126,
			"count":472,
			"max":[
				0.8857028484344482,
				-0.08752873539924622,
				-0.8912439942359924
			],
			"min":[
				0.6271741390228271,
				-0.7364495992660522,
				-1.5401649475097656
			],
			"type":"VEC3"
		},
		{
			"bufferView":13,
			"componentType":5126,
			"count":472,
			"type":"VEC3"
		},
		{
			"bufferView":14,
			"componentType":5126,
			"count":472,
			"type":"VEC2"
		},
		{
			"bufferView":15,
			"componentType":5126,
			"count":472,
			"max":[
				-0.6271745562553406,
				-0.08752834796905518,
				1.5401663780212402
			],
			"min":[
				-0.8857033848762512,
				-0.7364492416381836,
				0.8912453651428223
			],
			"type":"VEC3"
		},
		{
			"bufferView":16,
			"componentType":5126,
			"count":472,
			"type":"VEC3"
		},
		{
			"bufferView":17,
			"componentType":5126,
			"count":472,
			"type":"VEC2"
		},
		{
			"bufferView":18,
			"componentType":5126,
			"count":472,
			"max":[
				-0.6271745562553406,
				-0.08752873539924622,
				-0.8912439346313477
			],
			"min":[
				-0.8857033848762512,
				-0.7364495992660522,
				-1.5401649475097656
			],
			"type":"VEC3"
		},
		{
			"bufferView":19,
			"componentType":5126,
			"count":472,
			"type":"VEC3"
		},
		{
			"bufferView":20,
			"componentType":5126,
			"count":472,
			"type":"VEC2"
		}
	],
	"bufferViews":[
		{
			"buffer":0,
			"byteLength":28320,
			"byteOffset":0,
			"target":34962
		},
		{
			"buffer":0,
			"byteLength":28320,
			"byteOffset":28320,
			"target":34962
		},
		{
			"buffer":0,
			"byteLength":18880,
			"byteOffset":56640,
			"target":34962
		},
		{
			"buffer":0,
			"byteLength":14196,
			"byteOffset":75520,
			"target":34963
		},
		{
			"buffer":0,
			"byteLength":3828,
			"byteOffset":89716,
			"target":34962
		},
		{
			"buffer":0,
			"byteLength":3828,
			"byteOffset":93544,
			"target":34962
		},
		{
			"buffer":0,
			"byteLength":2552,
			"byteOffset":97372,
			"target":34962
		},
		{
			"buffer":0,
			"byteLength":1776,
			"byteOffset":99924,
			"target":34963
		},
		{
			"buffer":0,
			"byteLength":5664,
			"byteOffset":101700,
			"target":34962
		},
		{
			"buffer":0,
			"byteLength":5664,
			"byteOffset":107364,
			"target":34962
		},
		{
			"buffer":0,
			"byteLength":3776,
			"byteOffset":113028,
			"target":34962
		},
		{
			"buffer":0,
			"byteLength":2400,
			"byteOffset":116804,
			"target":34963
		},
		{
			"buffer":0,
			"byteLength":5664,
			"byteOffset":119204,
			"target":34962
		},
		{
			"buffer":0,
			"byteLength":5664,
			"byteOffset":124868,
			"target":34962
		},
		{
			"buffer":0,
			"byteLength":3776,
			"byteOffset":130532,
			"target":34962
		},
		{
			"buffer":0,
			"byteLength":5664,
			"byteOffset":134308,
			"target":34962
		},
		{
			"buffer":0,
			"byteLength":5664,
			"byteOffset":139972,
			"target":34962
		},
		{
			"buffer":0,
			"byteLength":3776,
			"byteOffset":145636,
			"target":34962
		},
		{
			"buffer":0,
			"byteLength":5664,
			"byteOffset":149412,
			"target":34962
		},
		{
			"buffer":0,
			"byteLength":5664,
			"byteOffset":155076,
			"target":34962
		},
		{
			"buffer":0,
			"byteLength":3776,
			"byteOffset":160740,
			"target":34962
		}
	],
	"samplers":[
		{
			"magFilter":9729,
			"minFilter":9987
		}
	],
	"buffers":[
		{
			"byteLength":164516,
			"uri":"scene.bin"
		}
	]
}
