{
	"asset":{
		"generator":"Khronos glTF Blender I/O v4.2.69",
		"version":"2.0"
	},
	"scene":0,
	"scenes":[
		{
			"name":"Scene",
			"nodes":[
				0
			]
		}
	],
	"nodes":[
		{
			"mesh":0,
			"name":"Renault R5"
		}
	],
	"materials":[
		{
			"doubleSided":true,
			"name":"Default_OBJ.233",
			"pbrMetallicRoughness":{
				"baseColorTexture":{
					"index":0
				},
				"metallicFactor":0,
				"roughnessFactor":0
			}
		},
		{
			"doubleSided":true,
			"name":"Default_OBJ.234",
			"pbrMetallicRoughness":{
				"baseColorTexture":{
					"index":1
				},
				"metallicFactor":0,
				"roughnessFactor":0.8211145401000977
			}
		},
		{
			"doubleSided":true,
			"name":"Default_OBJ.235",
			"pbrMetallicRoughness":{
				"baseColorTexture":{
					"index":2
				},
				"metallicFactor":0,
				"roughnessFactor":0.8211145401000977
			}
		},
		{
			"doubleSided":true,
			"name":"Default_OBJ.236",
			"pbrMetallicRoughness":{
				"baseColorTexture":{
					"index":3
				},
				"metallicFactor":0,
				"roughnessFactor":0.8211145401000977
			}
		},
		{
			"doubleSided":true,
			"name":"Default_OBJ.237",
			"pbrMetallicRoughness":{
				"baseColorTexture":{
					"index":4
				},
				"metallicFactor":0,
				"roughnessFactor":0.8211145401000977
			}
		}
	],
	"meshes":[
		{
			"name":"Renault R5_Default OBJ.030_0.002",
			"primitives":[
				{
					"attributes":{
						"POSITION":0,
						"NORMAL":1,
						"TEXCOORD_0":2
					},
					"indices":3,
					"material":0
				},
				{
					"attributes":{
						"POSITION":4,
						"NORMAL":5,
						"TEXCOORD_0":6
					},
					"indices":7,
					"material":1
				},
				{
					"attributes":{
						"POSITION":8,
						"NORMAL":9,
						"TEXCOORD_0":10
					},
					"indices":7,
					"material":2
				},
				{
					"attributes":{
						"POSITION":11,
						"NORMAL":12,
						"TEXCOORD_0":13
					},
					"indices":7,
					"material":3
				},
				{
					"attributes":{
						"POSITION":14,
						"NORMAL":15,
						"TEXCOORD_0":16
					},
					"indices":7,
					"material":4
				}
			]
		}
	],
	"textures":[
		{
			"sampler":0,
			"source":0
		},
		{
			"sampler":0,
			"source":0
		},
		{
			"sampler":0,
			"source":0
		},
		{
			"sampler":0,
			"source":0
		},
		{
			"sampler":0,
			"source":0
		}
	],
	"images":[
		{
			"mimeType":"image/png",
			"name":"Default_OBJ.030_baseColor",
			"uri":"textures/Default_OBJ_030_baseColor.png"
		}
	],
	"accessors":[
		{
			"bufferView":0,
			"componentType":5126,
			"count":1091,
			"max":[
				0.8899180293083191,
				0.5525879263877869,
				1.8327770233154297
			],
			"min":[
				-0.8899182081222534,
				-0.5525875091552734,
				-1.8327759504318237
			],
			"type":"VEC3"
		},
		{
			"bufferView":1,
			"componentType":5126,
			"count":1091,
			"type":"VEC3"
		},
		{
			"bufferView":2,
			"componentType":5126,
			"count":1091,
			"type":"VEC2"
		},
		{
			"bufferView":3,
			"componentType":5123,
			"count":3162,
			"type":"SCALAR"
		},
		{
			"bufferView":4,
			"componentType":5126,
			"count":366,
			"max":[
				0.8326866626739502,
				-0.181397944688797,
				1.4992570877075195
			],
			"min":[
				0.5529963374137878,
				-0.7789757251739502,
				0.901679277420044
			],
			"type":"VEC3"
		},
		{
			"bufferView":5,
			"componentType":5126,
			"count":366,
			"type":"VEC3"
		},
		{
			"bufferView":6,
			"componentType":5126,
			"count":366,
			"type":"VEC2"
		},
		{
			"bufferView":7,
			"componentType":5123,
			"count":1200,
			"type":"SCALAR"
		},
		{
			"bufferView":8,
			"componentType":5126,
			"count":366,
			"max":[
				0.8326866626739502,
				-0.18139836192131042,
				-0.9115279912948608
			],
			"min":[
				0.5529963374137878,
				-0.7789762020111084,
				-1.5091058015823364
			],
			"type":"VEC3"
		},
		{
			"bufferView":9,
			"componentType":5126,
			"count":366,
			"type":"VEC3"
		},
		{
			"bufferView":10,
			"componentType":5126,
			"count":366,
			"type":"VEC2"
		},
		{
			"bufferView":11,
			"componentType":5126,
			"count":366,
			"max":[
				-0.5529967546463013,
				-0.181397944688797,
				1.4992570877075195
			],
			"min":[
				-0.8326871395111084,
				-0.7789757251739502,
				0.901679277420044
			],
			"type":"VEC3"
		},
		{
			"bufferView":12,
			"componentType":5126,
			"count":366,
			"type":"VEC3"
		},
		{
			"bufferView":13,
			"componentType":5126,
			"count":366,
			"type":"VEC2"
		},
		{
			"bufferView":14,
			"componentType":5126,
			"count":366,
			"max":[
				-0.5529967546463013,
				-0.18139836192131042,
				-0.9115279912948608
			],
			"min":[
				-0.8326871395111084,
				-0.7789762020111084,
				-1.5091058015823364
			],
			"type":"VEC3"
		},
		{
			"bufferView":15,
			"componentType":5126,
			"count":366,
			"type":"VEC3"
		},
		{
			"bufferView":16,
			"componentType":5126,
			"count":366,
			"type":"VEC2"
		}
	],
	"bufferViews":[
		{
			"buffer":0,
			"byteLength":13092,
			"byteOffset":0,
			"target":34962
		},
		{
			"buffer":0,
			"byteLength":13092,
			"byteOffset":13092,
			"target":34962
		},
		{
			"buffer":0,
			"byteLength":8728,
			"byteOffset":26184,
			"target":34962
		},
		{
			"buffer":0,
			"byteLength":6324,
			"byteOffset":34912,
			"target":34963
		},
		{
			"buffer":0,
			"byteLength":4392,
			"byteOffset":41236,
			"target":34962
		},
		{
			"buffer":0,
			"byteLength":4392,
			"byteOffset":45628,
			"target":34962
		},
		{
			"buffer":0,
			"byteLength":2928,
			"byteOffset":50020,
			"target":34962
		},
		{
			"buffer":0,
			"byteLength":2400,
			"byteOffset":52948,
			"target":34963
		},
		{
			"buffer":0,
			"byteLength":4392,
			"byteOffset":55348,
			"target":34962
		},
		{
			"buffer":0,
			"byteLength":4392,
			"byteOffset":59740,
			"target":34962
		},
		{
			"buffer":0,
			"byteLength":2928,
			"byteOffset":64132,
			"target":34962
		},
		{
			"buffer":0,
			"byteLength":4392,
			"byteOffset":67060,
			"target":34962
		},
		{
			"buffer":0,
			"byteLength":4392,
			"byteOffset":71452,
			"target":34962
		},
		{
			"buffer":0,
			"byteLength":2928,
			"byteOffset":75844,
			"target":34962
		},
		{
			"buffer":0,
			"byteLength":4392,
			"byteOffset":78772,
			"target":34962
		},
		{
			"buffer":0,
			"byteLength":4392,
			"byteOffset":83164,
			"target":34962
		},
		{
			"buffer":0,
			"byteLength":2928,
			"byteOffset":87556,
			"target":34962
		}
	],
	"samplers":[
		{
			"magFilter":9729,
			"minFilter":9987
		}
	],
	"buffers":[
		{
			"byteLength":90484,
			"uri":"scene.bin"
		}
	]
}
