{
	"asset":{
		"generator":"Khronos glTF Blender I/O v4.2.69",
		"version":"2.0"
	},
	"scene":0,
	"scenes":[
		{
			"name":"Scene",
			"nodes":[
				0
			]
		}
	],
	"nodes":[
		{
			"mesh":0,
			"name":"Mitsubishi Lancer"
		}
	],
	"materials":[
		{
			"doubleSided":true,
			"name":"Default_OBJ.258",
			"pbrMetallicRoughness":{
				"baseColorTexture":{
					"index":0
				},
				"metallicFactor":0,
				"roughnessFactor":0
			}
		},
		{
			"doubleSided":true,
			"name":"Default_OBJ.259",
			"pbrMetallicRoughness":{
				"baseColorTexture":{
					"index":1
				},
				"metallicFactor":0,
				"roughnessFactor":0.8211145401000977
			}
		},
		{
			"doubleSided":true,
			"name":"Default_OBJ.260",
			"pbrMetallicRoughness":{
				"baseColorTexture":{
					"index":2
				},
				"metallicFactor":0,
				"roughnessFactor":0.8211145401000977
			}
		},
		{
			"doubleSided":true,
			"name":"Default_OBJ.261",
			"pbrMetallicRoughness":{
				"baseColorTexture":{
					"index":3
				},
				"metallicFactor":0,
				"roughnessFactor":0.8211145401000977
			}
		},
		{
			"doubleSided":true,
			"name":"Default_OBJ.262",
			"pbrMetallicRoughness":{
				"baseColorTexture":{
					"index":4
				},
				"metallicFactor":0,
				"roughnessFactor":0.8211145401000977
			}
		}
	],
	"meshes":[
		{
			"name":"body_geo_Default OBJ.068_0.002",
			"primitives":[
				{
					"attributes":{
						"POSITION":0,
						"NORMAL":1,
						"TEXCOORD_0":2
					},
					"indices":3,
					"material":0
				},
				{
					"attributes":{
						"POSITION":4,
						"NORMAL":5,
						"TEXCOORD_0":6
					},
					"indices":7,
					"material":1
				},
				{
					"attributes":{
						"POSITION":8,
						"NORMAL":9,
						"TEXCOORD_0":10
					},
					"indices":7,
					"material":2
				},
				{
					"attributes":{
						"POSITION":11,
						"NORMAL":12,
						"TEXCOORD_0":13
					},
					"indices":7,
					"material":3
				},
				{
					"attributes":{
						"POSITION":14,
						"NORMAL":15,
						"TEXCOORD_0":16
					},
					"indices":7,
					"material":4
				}
			]
		}
	],
	"textures":[
		{
			"sampler":0,
			"source":0
		},
		{
			"sampler":0,
			"source":0
		},
		{
			"sampler":0,
			"source":0
		},
		{
			"sampler":0,
			"source":0
		},
		{
			"sampler":0,
			"source":0
		}
	],
	"images":[
		{
			"mimeType":"image/png",
			"name":"Default_OBJ.068_baseColor",
			"uri":"textures/Default_OBJ_068_baseColor.png"
		}
	],
	"accessors":[
		{
			"bufferView":0,
			"componentType":5126,
			"count":2557,
			"max":[
				0.8778722882270813,
				0.635601282119751,
				2.1984550952911377
			],
			"min":[
				-0.8778725266456604,
				-0.6356012225151062,
				-2.1984550952911377
			],
			"type":"VEC3"
		},
		{
			"bufferView":1,
			"componentType":5126,
			"count":2557,
			"type":"VEC3"
		},
		{
			"bufferView":2,
			"componentType":5126,
			"count":2557,
			"type":"VEC2"
		},
		{
			"bufferView":3,
			"componentType":5123,
			"count":7158,
			"type":"SCALAR"
		},
		{
			"bufferView":4,
			"componentType":5126,
			"count":206,
			"max":[
				0.877147912979126,
				-0.15980350971221924,
				1.643553614616394
			],
			"min":[
				0.6232430934906006,
				-0.7923697233200073,
				1.010987401008606
			],
			"type":"VEC3"
		},
		{
			"bufferView":5,
			"componentType":5126,
			"count":206,
			"type":"VEC3"
		},
		{
			"bufferView":6,
			"componentType":5126,
			"count":206,
			"type":"VEC2"
		},
		{
			"bufferView":7,
			"componentType":5123,
			"count":720,
			"type":"SCALAR"
		},
		{
			"bufferView":8,
			"componentType":5126,
			"count":206,
			"max":[
				0.877147912979126,
				-0.15980395674705505,
				-0.9869428873062134
			],
			"min":[
				0.6232430934906006,
				-0.7923702001571655,
				-1.6195091009140015
			],
			"type":"VEC3"
		},
		{
			"bufferView":9,
			"componentType":5126,
			"count":206,
			"type":"VEC3"
		},
		{
			"bufferView":10,
			"componentType":5126,
			"count":206,
			"type":"VEC2"
		},
		{
			"bufferView":11,
			"componentType":5126,
			"count":206,
			"max":[
				-0.623244047164917,
				-0.15980350971221924,
				1.643553614616394
			],
			"min":[
				-0.8771488666534424,
				-0.7923697233200073,
				1.010987401008606
			],
			"type":"VEC3"
		},
		{
			"bufferView":12,
			"componentType":5126,
			"count":206,
			"type":"VEC3"
		},
		{
			"bufferView":13,
			"componentType":5126,
			"count":206,
			"type":"VEC2"
		},
		{
			"bufferView":14,
			"componentType":5126,
			"count":206,
			"max":[
				-0.623244047164917,
				-0.15980395674705505,
				-0.9869428873062134
			],
			"min":[
				-0.8771488666534424,
				-0.7923702001571655,
				-1.6195091009140015
			],
			"type":"VEC3"
		},
		{
			"bufferView":15,
			"componentType":5126,
			"count":206,
			"type":"VEC3"
		},
		{
			"bufferView":16,
			"componentType":5126,
			"count":206,
			"type":"VEC2"
		}
	],
	"bufferViews":[
		{
			"buffer":0,
			"byteLength":30684,
			"byteOffset":0,
			"target":34962
		},
		{
			"buffer":0,
			"byteLength":30684,
			"byteOffset":30684,
			"target":34962
		},
		{
			"buffer":0,
			"byteLength":20456,
			"byteOffset":61368,
			"target":34962
		},
		{
			"buffer":0,
			"byteLength":14316,
			"byteOffset":81824,
			"target":34963
		},
		{
			"buffer":0,
			"byteLength":2472,
			"byteOffset":96140,
			"target":34962
		},
		{
			"buffer":0,
			"byteLength":2472,
			"byteOffset":98612,
			"target":34962
		},
		{
			"buffer":0,
			"byteLength":1648,
			"byteOffset":101084,
			"target":34962
		},
		{
			"buffer":0,
			"byteLength":1440,
			"byteOffset":102732,
			"target":34963
		},
		{
			"buffer":0,
			"byteLength":2472,
			"byteOffset":104172,
			"target":34962
		},
		{
			"buffer":0,
			"byteLength":2472,
			"byteOffset":106644,
			"target":34962
		},
		{
			"buffer":0,
			"byteLength":1648,
			"byteOffset":109116,
			"target":34962
		},
		{
			"buffer":0,
			"byteLength":2472,
			"byteOffset":110764,
			"target":34962
		},
		{
			"buffer":0,
			"byteLength":2472,
			"byteOffset":113236,
			"target":34962
		},
		{
			"buffer":0,
			"byteLength":1648,
			"byteOffset":115708,
			"target":34962
		},
		{
			"buffer":0,
			"byteLength":2472,
			"byteOffset":117356,
			"target":34962
		},
		{
			"buffer":0,
			"byteLength":2472,
			"byteOffset":119828,
			"target":34962
		},
		{
			"buffer":0,
			"byteLength":1648,
			"byteOffset":122300,
			"target":34962
		}
	],
	"samplers":[
		{
			"magFilter":9729,
			"minFilter":9987
		}
	],
	"buffers":[
		{
			"byteLength":123948,
			"uri":"scene.bin"
		}
	]
}
